<svg preserveAspectRatio='none' width="275" height="700" viewBox="0 0 275 700" fill="none" xmlns="http://www.w3.org/2000/svg">
<path d="M196.342 520.086L271.904 355.475C273.636 351.702 273.636 347.361 271.904 343.587L196.342 178.976L124.984 14.6262C122.719 9.40968 117.569 6.03961 111.882 6.05254L64.1403 6.16105C53.6891 6.1848 46.8191 17.0789 51.3015 26.5201L201.758 343.42C203.594 347.287 203.594 351.775 201.758 355.642L51.3015 672.542C46.8191 681.984 53.6891 692.878 64.1403 692.902L111.882 693.01C117.569 693.023 122.719 689.653 124.984 684.436L196.342 520.086Z" fill="url(#paint0_linear)"/>
<path d="M141.778 523.065L218.908 355.489C220.648 351.708 220.648 347.355 218.908 343.574L141.778 175.997L68.9107 8.61852C66.6416 3.40628 61.4913 0.0416371 55.8066 0.0576922L21.8425 0.153615C11.5528 0.182676 4.68574 10.7752 8.85916 20.1806L152.436 343.752C154.069 347.432 154.069 351.631 152.436 355.31L8.85917 678.882C4.68575 688.287 11.5528 698.88 21.8426 698.909L55.8066 699.005C61.4913 699.021 66.6416 695.656 68.9107 690.444L141.778 523.065Z" fill="url(#paint1_linear)"/>
<defs>
<linearGradient id="paint0_linear" x1="266.284" y1="349.531" x2="-428.34" y2="349.531" gradientUnits="userSpaceOnUse">
<stop stop-color="#DEDEEF"/>
<stop offset="1" stop-color="white"/>
</linearGradient>
<linearGradient id="paint1_linear" x1="221.65" y1="349.531" x2="-486.999" y2="349.531" gradientUnits="userSpaceOnUse">
<stop stop-color="#EDEDF8"/>
<stop offset="1" stop-color="white"/>
</linearGradient>
</defs>
</svg>
