<svg preserveAspectRatio='none' width="844" height="720" viewBox="0 0 844 720" fill="none" xmlns="http://www.w3.org/2000/svg">
<path d="M765.708 530.086L841.27 365.475C843.003 361.702 843.003 357.361 841.27 353.587L765.708 188.976L694.342 24.608C692.081 19.4007 686.945 16.0325 681.268 16.0343L155.269 16.2075C147.402 16.21 141.026 22.5884 141.026 30.4556L141.026 688.607C141.026 696.474 147.402 702.853 155.269 702.855L681.268 703.028C686.945 703.03 692.081 699.662 694.342 694.455L765.708 530.086Z" fill="url(#paint90_linear)"/>
<path d="M711.144 533.065L788.274 365.489C790.014 361.708 790.014 357.355 788.274 353.574L711.144 185.997L638.266 18.5952C636.002 13.3948 630.87 10.0325 625.198 10.0344L96.6092 10.2106C88.742 10.2132 82.3658 16.5915 82.3658 24.4587L82.3658 694.604C82.3658 702.471 88.742 708.849 96.6092 708.852L625.198 709.028C630.87 709.03 636.002 705.668 638.266 700.467L711.144 533.065Z" fill="url(#paint91_linear)"/>
<path d="M643.817 538.031L723.005 365.474C724.737 361.701 724.737 357.361 723.005 353.589L643.817 181.032L568.975 8.60933C566.714 3.40136 561.577 0.0324736 555.9 0.0343786L15.242 0.215791C7.37488 0.218431 0.998657 6.59678 0.998657 14.464L0.998634 704.599C0.998633 712.466 7.37485 718.844 15.242 718.847L555.9 719.028C561.577 719.03 566.714 715.661 568.975 710.453L643.817 538.031Z" fill="url(#paint92_linear)"/>
<defs>
<linearGradient id="paint90_linear" x1="835.65" y1="359.531" x2="141.026" y2="359.531" gradientUnits="userSpaceOnUse">
<stop stop-color="#DEDEEF"/>
<stop offset="1" stop-color="white"/>
</linearGradient>
<linearGradient id="paint91_linear" x1="791.016" y1="359.531" x2="82.366" y2="359.531" gradientUnits="userSpaceOnUse">
<stop stop-color="#EDEDF8"/>
<stop offset="1" stop-color="white"/>
</linearGradient>
<linearGradient id="paint92_linear" x1="806.399" y1="359.531" x2="0.998807" y2="359.531" gradientUnits="userSpaceOnUse">
<stop stop-color="#F5F5F8"/>
<stop offset="1" stop-color="white"/>
</linearGradient>
</defs>
</svg>
