<svg width="58" height="57" viewBox="0 0 58 57" fill="none" xmlns="http://www.w3.org/2000/svg">
<path d="M48.9585 45.0186V39.7083L52.9865 43.7359C53.5773 44.3478 54.4526 44.5933 55.2755 44.3777C56.0984 44.1626 56.7411 43.5199 56.9567 42.697C57.1718 41.8741 56.9264 40.9987 56.3145 40.408L48.9585 33.052V18.0205C48.9585 16.9806 48.1153 16.1375 47.0754 16.1375H44.2509C44.6559 16.1375 45.0154 15.8777 45.1437 15.4934L46.0852 12.6689C46.1174 12.5668 46.1316 12.4597 46.1275 12.3526C47.7517 11.1389 48.4165 9.02146 47.777 7.09707C47.1371 5.17268 45.3372 3.87443 43.3094 3.87443C41.2816 3.87443 39.4818 5.17268 38.8423 7.09707C38.2028 9.02146 38.8671 11.1389 40.4918 12.3526C40.4872 12.4597 40.5019 12.5668 40.5341 12.6689L41.4756 15.4934C41.6034 15.8777 41.9629 16.1375 42.3679 16.1375H35.7773V18.0205H47.0754V31.169L39.2243 23.3165C38.851 22.9634 38.2667 22.9634 37.893 23.3165L35.8959 25.3144C35.5286 25.6822 35.5286 26.278 35.8959 26.6458L47.0754 37.8253V44.3828H9.41509V25.5526H15.0641C16.104 25.5526 16.9472 24.7094 16.9472 23.6696V18.0205H29.1868V16.1375H16.9472V10.8889C19.0711 10.5887 21.2354 10.762 23.2844 11.3959C25.0971 11.9715 29.5513 13.7217 31.7722 17.5525C32.386 18.6085 32.7905 19.7725 32.9634 20.9816C33.4162 24.7586 32.0081 28.5201 29.1868 31.072V28.3771H27.3038V33.0847C27.3038 33.6046 27.7253 34.0262 28.2453 34.0262H32.9528V32.1431H30.7875C33.8608 29.1821 35.3567 24.9448 34.8239 20.7103C34.6193 19.2641 34.1361 17.8711 33.401 16.6082C30.8514 12.2096 25.8745 10.2439 23.8163 9.59014C21.594 8.90424 19.2513 8.69966 16.9435 8.99066V2.01485C16.9435 0.974964 16.1004 0.131836 15.0605 0.131836H1.88302C0.843129 0.131836 0 0.974964 0 2.01485V23.6696C0 24.7094 0.843129 25.5526 1.88302 25.5526H7.53207V45.0186L0.179751 55.1274C-0.028043 55.4138 -0.0579249 55.793 0.102518 56.1084C0.26342 56.4238 0.587524 56.6224 0.941509 56.6224H55.549C55.9035 56.6224 56.2276 56.4238 56.388 56.1084C56.5489 55.793 56.519 55.4138 56.3108 55.1274L48.9585 45.0186ZM43.3094 5.78089C44.8697 5.78089 46.1339 7.04558 46.1339 8.60542C46.1339 10.1653 44.8697 11.4299 43.3094 11.4299C41.7496 11.4299 40.4849 10.1653 40.4849 8.60542C40.4849 7.04558 41.7496 5.78089 43.3094 5.78089ZM43.8859 13.313L43.5724 14.2545H43.0469L42.7334 13.313H43.8859ZM55.1215 42.0722C55.1219 42.1972 55.0723 42.3172 54.9831 42.4046C54.7997 42.5885 54.5013 42.5885 54.3179 42.4046L39.89 27.9771L40.5557 27.3115L54.984 41.7389C55.0723 41.8276 55.1219 41.9476 55.1215 42.0722ZM38.5587 25.3135L39.2243 25.9792L38.5587 26.6449L37.893 25.9792L38.5587 25.3135ZM1.88302 2.01485H15.0641V23.6696H1.88302V2.01485ZM23.9869 54.7394L25.1169 51.9148H31.3741L32.5037 54.7394H23.9869ZM34.532 54.7394L32.8862 50.623C32.7427 50.2658 32.3965 50.0318 32.0113 50.0318H24.4792C24.0944 50.0318 23.7478 50.2658 23.6048 50.623L21.959 54.7394H2.79097L8.95307 46.2658H47.5379L53.7 54.7394H34.532Z" fill="#8D98A6"/>
<path d="M9.41504 47.2075H13.1811V49.0905H9.41504V47.2075Z" fill="#150A33"/>
<path d="M15.0645 47.2075H18.8305V49.0905H15.0645V47.2075Z" fill="#150A33"/>
<path d="M20.7129 47.2075H24.4789V49.0905H20.7129V47.2075Z" fill="#150A33"/>
<path d="M6.59082 50.9736H10.3569V52.8567H6.59082V50.9736Z" fill="#150A33"/>
<path d="M12.2393 50.9736H16.0053V52.8567H12.2393V50.9736Z" fill="#150A33"/>
<path d="M17.8887 50.9736H21.6547V52.8567H17.8887V50.9736Z" fill="#150A33"/>
<path d="M26.3623 47.2075H30.1283V49.0905H26.3623V47.2075Z" fill="#150A33"/>
<path d="M32.0117 47.2075H35.7778V49.0905H32.0117V47.2075Z" fill="#150A33"/>
<path d="M22.3443 38.7C23.9161 39.1344 24.0788 39.2963 24.51 40.8658C24.6227 41.274 24.9941 41.5567 25.4175 41.5567C25.8409 41.5567 26.2124 41.274 26.325 40.8658C26.7594 39.2935 26.9222 39.1312 28.4908 38.7C28.899 38.5874 29.1817 38.2164 29.1817 37.7925C29.1817 37.3691 28.899 36.9977 28.4908 36.885C26.9194 36.4511 26.7562 36.2892 26.325 34.7197C26.2124 34.311 25.8409 34.0283 25.4175 34.0283C24.9941 34.0283 24.6227 34.311 24.51 34.7197C24.0761 36.292 23.9128 36.4538 22.3443 36.885C21.936 36.9977 21.6533 37.3691 21.6533 37.7925C21.6533 38.2164 21.936 38.5874 22.3443 38.7ZM25.4203 37.285C25.5678 37.4744 25.7384 37.6449 25.9278 37.7925C25.7384 37.9401 25.5678 38.1106 25.4203 38.3C25.2727 38.1106 25.1026 37.9401 24.9127 37.7925C25.1026 37.6449 25.2727 37.4744 25.4203 37.285Z" fill="#150A33"/>
<path d="M24.513 26.7456C24.6256 27.1539 24.997 27.4366 25.4204 27.4366C25.8443 27.4366 26.2158 27.1539 26.3284 26.7456C26.7624 25.1734 26.9251 25.0116 28.4937 24.5803C28.9019 24.4677 29.1846 24.0963 29.1846 23.6724C29.1846 23.249 28.9019 22.8775 28.4937 22.7649C26.9224 22.3309 26.7596 22.1691 26.3284 20.5996C26.2158 20.1909 25.8443 19.9082 25.4204 19.9082C24.997 19.9082 24.6256 20.1909 24.513 20.5996C24.079 22.1719 23.9162 22.3337 22.3477 22.7649C21.939 22.8775 21.6562 23.249 21.6562 23.6724C21.6562 24.0963 21.939 24.4677 22.3477 24.5803C23.9139 25.0116 24.079 25.1761 24.513 26.7456ZM25.4204 23.1621C25.568 23.3515 25.7386 23.5221 25.928 23.6696C25.7386 23.8172 25.568 23.9878 25.4204 24.1772C25.2729 23.9878 25.1028 23.8172 24.9129 23.6696C25.1028 23.5221 25.2729 23.3515 25.4204 23.1621Z" fill="#150A33"/>
<path d="M18.7963 25.773C18.6837 25.3648 18.3122 25.082 17.8884 25.082C17.465 25.082 17.0935 25.3648 16.9809 25.773C16.2862 28.29 15.918 28.6577 13.4033 29.351C12.9946 29.4636 12.7119 29.8351 12.7119 30.2585C12.7119 30.6819 12.9946 31.0533 13.4033 31.166C15.9208 31.8611 16.289 32.2293 16.9809 34.744C17.0935 35.1522 17.465 35.435 17.8884 35.435C18.3122 35.435 18.6837 35.1522 18.7963 34.744C19.491 32.227 19.8592 31.8592 22.3739 31.166C22.7821 31.0533 23.0648 30.6819 23.0648 30.2585C23.0648 29.8351 22.7821 29.4636 22.3739 29.351C19.8592 28.66 19.4891 28.29 18.7963 25.773ZM17.8884 31.8505C17.5183 31.1816 16.9671 30.6309 16.2982 30.2603C16.9671 29.8903 17.5183 29.339 17.8884 28.6702C18.2589 29.339 18.8101 29.8903 19.4785 30.2603C18.8101 30.6309 18.2589 31.1816 17.8884 31.8505Z" fill="#150A33"/>
<path d="M34.8359 50.9736H38.602V52.8567H34.8359V50.9736Z" fill="#150A33"/>
<path d="M40.4854 50.9736H44.2514V52.8567H40.4854V50.9736Z" fill="#150A33"/>
<path d="M46.1338 50.9736H49.8998V52.8567H46.1338V50.9736Z" fill="#150A33"/>
<path d="M37.6602 47.2075H41.4262V49.0905H37.6602V47.2075Z" fill="#150A33"/>
<path d="M43.3096 47.2075H47.0756V49.0905H43.3096V47.2075Z" fill="#150A33"/>
<path d="M44.251 41.5581H46.134V43.4411H44.251V41.5581Z" fill="#FE384D"/>
<path d="M41.4268 41.5581H43.3098V43.4411H41.4268V41.5581Z" fill="#FE384D"/>
<path d="M44.251 38.7339H46.134V40.6169H44.251V38.7339Z" fill="#FE384D"/>
<path d="M46.1342 19.9034C46.1342 19.3835 45.7126 18.9619 45.1927 18.9619H42.3682V20.8449H44.2512V22.728H46.1342V19.9034Z" fill="#FE384D"/>
<path d="M44.251 23.6694H46.134V25.5525H44.251V23.6694Z" fill="#FE384D"/>
<path d="M39.543 18.9619H41.426V20.8449H39.543V18.9619Z" fill="#FE384D"/>
<path d="M13.1808 2.95654H3.76573C3.24578 2.95654 2.82422 3.37811 2.82422 3.89805V9.54711C2.82422 10.0671 3.24578 10.4886 3.76573 10.4886H13.1808C13.7008 10.4886 14.1223 10.0671 14.1223 9.54711V3.89805C14.1223 3.37811 13.7008 2.95654 13.1808 2.95654ZM12.2393 8.6056H4.70724V4.83956H12.2393V8.6056Z" fill="#8D98A6"/>
<path d="M13.1808 17.0791H3.76573C3.24578 17.0791 2.82422 17.5007 2.82422 18.0206V21.7866C2.82422 22.3066 3.24578 22.7282 3.76573 22.7282H13.1808C13.7008 22.7282 14.1223 22.3066 14.1223 21.7866V18.0206C14.1223 17.5007 13.7008 17.0791 13.1808 17.0791ZM12.2393 20.8451H4.70724V18.9621H12.2393V20.8451Z" fill="#8D98A6"/>
<path d="M2.82422 11.4302H6.59025V13.3132H2.82422V11.4302Z" fill="#8D98A6"/>
<path d="M7.53223 11.4302H14.1228V13.3132H7.53223V11.4302Z" fill="#8D98A6"/>
<path d="M2.82422 14.2544H14.1223V16.1374H2.82422V14.2544Z" fill="#8D98A6"/>
<path d="M42.3682 0.131836H44.2512V2.95636H42.3682V0.131836Z" fill="#FE384D"/>
<path d="M46.6387 3.94622L48.6362 1.94873L49.9675 3.28054L47.97 5.27757L46.6387 3.94622Z" fill="#FE384D"/>
<path d="M48.958 7.66406H51.7825V9.54708H48.958V7.66406Z" fill="#FE384D"/>
<path d="M34.8359 7.66406H37.6605V9.54708H34.8359V7.66406Z" fill="#FE384D"/>
<path d="M36.6523 3.28054L37.9832 1.94873L39.9812 3.9453L38.6498 5.27711L36.6523 3.28054Z" fill="#FE384D"/>
<path d="M42.3682 7.66406H44.2512V9.54708H42.3682V7.66406Z" fill="#8D98A6"/>
</svg>
