<svg width="54" height="67" viewBox="0 0 54 67" fill="none" xmlns="http://www.w3.org/2000/svg">
<path d="M26.2696 66.9221H3.51099C2.0163 66.9221 0.804932 65.5983 0.804932 63.9648V59.6782H28.9756V63.9648C28.9757 65.5983 27.7643 66.9221 26.2696 66.9221Z" fill="#8D98A6"/>
<path d="M3.51099 17.8245H26.2704C27.7643 17.8245 28.9756 19.0012 28.9756 20.4532V24.2635H0.804932V20.4532C0.804932 19.0012 2.0163 17.8245 3.51099 17.8245Z" fill="#E4EEF0"/>
<path d="M28.9756 24.2639H0.804932V59.6784H28.9756V24.2639Z" fill="white"/>
<path d="M25.7561 46.8H4.02441V59.6781H25.7561V46.8Z" fill="white"/>
<path d="M12.1424 29.093H0.804932V42.7759H12.1424V29.093Z" fill="#FE384D"/>
<path d="M26.2515 66.922H3.52897C1.58335 66.922 0 65.3823 0 63.4885V59.6781C0 59.233 0.370608 58.8733 0.827203 58.8733H28.9532C29.4107 58.8733 29.7804 59.233 29.7804 59.6781V63.4885C29.7805 65.3823 28.198 66.922 26.2515 66.922ZM1.6545 60.483V63.4884C1.6545 64.4936 2.49576 65.3123 3.52907 65.3123H26.2516C27.2848 65.3123 28.1262 64.4937 28.1262 63.4884V60.483H1.6545Z" fill="#8D98A6"/>
<path d="M17.6065 63.7025H12.1735C11.6737 63.7025 11.2681 63.3428 11.2681 62.8977C11.2681 62.4525 11.6737 62.0928 12.1735 62.0928H17.6065C18.1072 62.0928 18.5119 62.4525 18.5119 62.8977C18.5119 63.3427 18.1072 63.7025 17.6065 63.7025Z" fill="white"/>
<path d="M24.9509 63.7025H21.7314C21.2863 63.7025 20.9265 63.3428 20.9265 62.8977C20.9265 62.4525 21.2863 62.0928 21.7314 62.0928H24.9509C25.396 62.0928 25.7558 62.4525 25.7558 62.8977C25.7558 63.3427 25.396 63.7025 24.9509 63.7025Z" fill="white"/>
<path d="M8.04881 63.7025H4.82927C4.38501 63.7025 4.02441 63.3428 4.02441 62.8977C4.02441 62.4525 4.38501 62.0928 4.82927 62.0928H8.04881C8.49307 62.0928 8.85367 62.4525 8.85367 62.8977C8.85376 63.3427 8.49316 63.7025 8.04881 63.7025Z" fill="white"/>
<path d="M28.9537 25.0683H0.827689C0.371095 25.0683 0.000488281 24.7077 0.000488281 24.2634V20.4531C0.000488281 18.5601 1.58383 17.0195 3.52945 17.0195H26.2527C28.1983 17.0195 29.7809 18.5601 29.7809 20.4531V24.2634C29.7809 24.7077 29.4111 25.0683 28.9537 25.0683ZM1.65499 23.4586H28.1265V20.4531C28.1265 19.4478 27.286 18.6292 26.2528 18.6292H3.52945C2.49624 18.6292 1.65489 19.4477 1.65489 20.4531V23.4586H1.65499Z" fill="#8D98A6"/>
<path d="M19.2499 21.8493H10.5304C10.0491 21.8493 9.65845 21.4886 9.65845 21.0444C9.65845 20.6001 10.0491 20.2395 10.5304 20.2395H19.2499C19.7321 20.2395 20.1218 20.6001 20.1218 21.0444C20.1218 21.4886 19.7321 21.8493 19.2499 21.8493Z" fill="#150A33"/>
<path d="M7.17676 33.1173H3.28647C2.80519 33.1173 2.41455 32.7567 2.41455 32.3124C2.41455 31.8682 2.80519 31.5076 3.28647 31.5076H5.63405H7.17676C7.65896 31.5076 8.04868 31.8682 8.04868 32.3124C8.04868 32.7567 7.65896 33.1173 7.17676 33.1173Z" fill="#150A33"/>
<path d="M9.59149 36.3368H4.89634C4.41506 36.3368 4.02441 35.9762 4.02441 35.5319C4.02441 35.0877 4.41506 34.7271 4.89634 34.7271H9.59149C10.0737 34.7271 10.4634 35.0877 10.4634 35.5319C10.4634 35.9762 10.0737 36.3368 9.59149 36.3368Z" fill="#150A33"/>
<path d="M12.006 39.5563H7.31089C6.82961 39.5563 6.43896 39.1957 6.43896 38.7514C6.43896 38.3071 6.82961 37.9465 7.31089 37.9465H12.006C12.4882 37.9465 12.878 38.3071 12.878 38.7514C12.878 39.1957 12.4882 39.5563 12.006 39.5563Z" fill="#150A33"/>
<path d="M25.7272 60.4829H4.05307C3.59295 60.4829 3.21948 60.1231 3.21948 59.678V46.8C3.21948 46.3549 3.59295 45.9951 4.05307 45.9951H25.7273C26.1883 45.9951 26.5609 46.3549 26.5609 46.8V59.678C26.5609 60.1231 26.1882 60.4829 25.7272 60.4829ZM4.88666 58.8732H24.8936V47.6048H4.88666V58.8732Z" fill="#150A33"/>
<path d="M22.4789 50.8248H12.1304C11.6544 50.8248 11.2681 50.4651 11.2681 50.02C11.2681 49.5748 11.6544 49.2151 12.1304 49.2151H22.4789C22.9558 49.2151 23.3412 49.5748 23.3412 50.02C23.3412 50.4651 22.9558 50.8248 22.4789 50.8248Z" fill="#150A33"/>
<path d="M8.84753 50.8248H7.2499C6.80228 50.8248 6.43896 50.4651 6.43896 50.02C6.43896 49.5748 6.80228 49.2151 7.2499 49.2151H8.84753C9.29515 49.2151 9.65847 49.5748 9.65847 50.02C9.65847 50.4651 9.29515 50.8248 8.84753 50.8248Z" fill="#150A33"/>
<path d="M22.4789 57.2638H12.1304C11.6544 57.2638 11.2681 56.904 11.2681 56.4589C11.2681 56.0138 11.6544 55.6541 12.1304 55.6541H22.4789C22.9558 55.6541 23.3412 56.0138 23.3412 56.4589C23.3412 56.904 22.9558 57.2638 22.4789 57.2638Z" fill="#150A33"/>
<path d="M8.84753 57.2638H7.2499C6.80228 57.2638 6.43896 56.904 6.43896 56.4589C6.43896 56.0138 6.80228 55.6541 7.2499 55.6541H8.84753C9.29515 55.6541 9.65847 56.0138 9.65847 56.4589C9.65847 56.904 9.29515 57.2638 8.84753 57.2638Z" fill="#150A33"/>
<path d="M11.9581 54.0443H7.35879C6.85107 54.0443 6.43896 53.6846 6.43896 53.2394C6.43896 52.7943 6.85107 52.4346 7.35879 52.4346H11.9581C12.4659 52.4346 12.878 52.7943 12.878 53.2394C12.878 53.6845 12.4659 54.0443 11.9581 54.0443Z" fill="#150A33"/>
<path d="M22.5362 54.0443H20.1215C19.6764 54.0443 19.3167 53.6846 19.3167 53.2394C19.3167 52.7943 19.6764 52.4346 20.1215 52.4346H22.5362C22.9813 52.4346 23.341 52.7943 23.341 53.2394C23.341 53.6845 22.9813 54.0443 22.5362 54.0443Z" fill="#150A33"/>
<path d="M16.2985 54.0443H15.0912C14.758 54.0443 14.4875 53.6846 14.4875 53.2394C14.4875 52.7943 14.758 52.4346 15.0912 52.4346H16.2985C16.6324 52.4346 16.9022 52.7943 16.9022 53.2394C16.9022 53.6845 16.6324 54.0443 16.2985 54.0443Z" fill="#150A33"/>
<path d="M12.0443 43.5807H0.83359C0.37347 43.5807 0 43.2001 0 42.7312V29.1376C0 28.6687 0.37347 28.2881 0.83359 28.2881H12.0444C12.5054 28.2881 12.878 28.6687 12.878 29.1376V42.7311C12.878 43.2001 12.5053 43.5807 12.0443 43.5807ZM1.66718 41.8815H11.2107V29.9873H1.66718V41.8815Z" fill="#150A33"/>
<path d="M17.6386 29.093H28.9761V42.7759H17.6386V29.093Z" fill="#8D98A6"/>
<path d="M17.7364 43.5807H28.9472C29.4073 43.5807 29.7808 43.2001 29.7808 42.7312V29.1376C29.7808 28.6687 29.4073 28.2881 28.9472 28.2881H17.7363C17.2753 28.2881 16.9028 28.6687 16.9028 29.1376V42.7311C16.9028 43.2001 17.2754 43.5807 17.7364 43.5807ZM28.1136 41.8815H18.57V29.9873H28.1136V41.8815Z" fill="#150A33"/>
<path d="M28.9533 60.4833H0.827203C0.370608 60.4833 0 60.1072 0 59.6418V24.3004C0 23.836 0.370608 23.459 0.827203 23.459H28.9532C29.4107 23.459 29.7804 23.836 29.7804 24.3004V59.6418C29.7805 60.1072 29.4108 60.4833 28.9533 60.4833ZM1.6545 58.8004H28.1261V25.1418H1.6545V58.8004Z" fill="#8D98A6"/>
<path d="M21.6643 33.1173H17.774C17.2927 33.1173 16.9021 32.7567 16.9021 32.3124C16.9021 31.8682 17.2927 31.5076 17.774 31.5076H20.1216H21.6643C22.1465 31.5076 22.5362 31.8682 22.5362 32.3124C22.5362 32.7567 22.1465 33.1173 21.6643 33.1173Z" fill="#150A33"/>
<path d="M24.8837 36.3368H20.1886C19.7073 36.3368 19.3167 35.9762 19.3167 35.5319C19.3167 35.0877 19.7073 34.7271 20.1886 34.7271H24.8837C25.3659 34.7271 25.7557 35.0877 25.7557 35.5319C25.7557 35.9762 25.3659 36.3368 24.8837 36.3368Z" fill="#150A33"/>
<path d="M27.2983 39.5563H22.6031C22.1218 39.5563 21.7312 39.1957 21.7312 38.7514C21.7312 38.3071 22.1218 37.9465 22.6031 37.9465H27.2983C27.7805 37.9465 28.1702 38.3071 28.1702 38.7514C28.1702 39.1957 27.7805 39.5563 27.2983 39.5563Z" fill="#150A33"/>
<path d="M12.8877 4.16214C12.8877 3.26722 13.6129 2.54201 14.5078 2.54201H50.1508C51.0457 2.54201 51.7709 3.26722 51.7709 4.16214V23.6038H32.3293V25.2239H51.7709V26.844C51.7709 27.7389 51.0457 28.4642 50.1508 28.4642H32.3293V30.0843H35.8183L37.6409 34.9447H32.3293V36.5648H41.2401V34.9447H39.3712L37.5486 30.0843H50.1508C51.9402 30.0843 53.3911 28.6335 53.3911 26.844V4.16214C53.3911 2.3727 51.9402 0.921875 50.1508 0.921875H14.5078C12.7184 0.921875 11.2676 2.3727 11.2676 4.16214V13.8829H12.8877V4.16214Z" fill="#8D98A6"/>
<path d="M29.0894 11.4529H42.0504V13.073H29.0894V11.4529Z" fill="#150A33"/>
<path d="M32.3296 15.5027H38.8101V17.1228H32.3296V15.5027Z" fill="#150A33"/>
<path d="M35.5708 7.4021H48.5319V9.02223H35.5708V7.4021Z" fill="#150A33"/>
<path d="M40.4304 15.5027H48.5311V17.1228H40.4304V15.5027Z" fill="#150A33"/>
<path d="M32.3296 19.5537H42.0504V21.1738H32.3296V19.5537Z" fill="#150A33"/>
<path d="M43.6707 19.5537H48.5311V21.1738H43.6707V19.5537Z" fill="#150A33"/>
<path d="M43.6707 11.4529H48.5311V13.073H43.6707V11.4529Z" fill="#150A33"/>
<path d="M29.0894 7.4021H33.9498V9.02223H29.0894V7.4021Z" fill="#150A33"/>
<path d="M14.5088 4.16211H16.1289V5.78224H14.5088V4.16211Z" fill="#150A33"/>
<path d="M17.7483 4.16211H19.3684V5.78224H17.7483V4.16211Z" fill="#150A33"/>
<path d="M20.9885 4.16211H22.6087V5.78224H20.9885V4.16211Z" fill="#150A33"/>
<path d="M33.1397 49.5253H52.5813C53.0288 49.5253 53.3913 49.1628 53.3913 48.7152V38.9944C53.3913 38.5468 53.0288 38.1843 52.5813 38.1843H33.1397C32.6921 38.1843 32.3296 38.5468 32.3296 38.9944V48.7152C32.3296 49.1628 32.6921 49.5253 33.1397 49.5253ZM33.9497 39.8045H51.7712V47.9051H33.9497V39.8045Z" fill="#8D98A6"/>
<path d="M35.5708 44.6655H37.1909V46.2857H35.5708V44.6655Z" fill="#8D98A6"/>
<path d="M48.5312 44.6655H50.1514V46.2857H48.5312V44.6655Z" fill="#8D98A6"/>
<path d="M35.5708 41.4248H37.1909V43.0449H35.5708V41.4248Z" fill="#8D98A6"/>
<path d="M38.8103 41.4248H40.4304V43.0449H38.8103V41.4248Z" fill="#8D98A6"/>
<path d="M42.0505 41.4248H43.6707V43.0449H42.0505V41.4248Z" fill="#8D98A6"/>
<path d="M45.2898 41.4248H46.9099V43.0449H45.2898V41.4248Z" fill="#8D98A6"/>
<path d="M48.5312 41.4248H50.1514V43.0449H48.5312V41.4248Z" fill="#8D98A6"/>
<path d="M38.8103 44.6655H46.911V46.2857H38.8103V44.6655Z" fill="#8D98A6"/>
<path d="M17.1761 7.6394L14.7459 10.0696C14.4298 10.3861 14.4298 10.8985 14.7459 11.215L17.1761 13.6452L18.3215 12.4998L16.464 10.6423L18.3215 8.78484L17.1761 7.6394Z" fill="#150A33"/>
<path d="M24.8017 13.6452L27.2319 11.215C27.548 10.8985 27.548 10.3861 27.2319 10.0696L24.8017 7.6394L23.6562 8.78484L25.5137 10.6423L23.6562 12.4998L24.8017 13.6452Z" fill="#150A33"/>
<path d="M19.3931 13.6863L21.013 7.20581L22.5839 7.59849L20.9638 14.079L19.3931 13.6863Z" fill="#150A33"/>
</svg>
