<svg width="61" height="64" viewBox="0 0 61 64" fill="none" xmlns="http://www.w3.org/2000/svg">
<g clip-path="url(#clip0)">
<path d="M18.1134 20.8445L19.1684 22.6552C17.248 23.5851 15.9463 25.4057 15.9463 27.4945H22.0902H28.2341C28.2341 25.4058 26.9324 23.5851 25.012 22.6552L26.0673 20.8445C26.0673 20.8445 26.1172 20.7483 26.0225 20.6943C25.9277 20.6404 25.8641 20.7325 25.8641 20.7325L24.7928 22.5591C23.977 22.2007 23.0599 21.9983 22.0901 21.9983C21.1203 21.9983 20.2032 22.2007 19.3875 22.5591L18.3162 20.7325C18.3162 20.7325 18.2564 20.6403 18.161 20.6941C18.0654 20.7478 18.1132 20.8445 18.1132 20.8445L18.1134 20.8445ZM19.1684 24.3518C19.4903 24.3518 19.7527 24.6109 19.7527 24.9287C19.7527 25.2464 19.4903 25.4975 19.1684 25.4975C18.8464 25.4975 18.584 25.2464 18.584 24.9287C18.584 24.6109 18.8464 24.3518 19.1684 24.3518ZM25.012 24.3518C25.3339 24.3518 25.5964 24.6109 25.5964 24.9287C25.5964 25.2464 25.3339 25.4975 25.012 25.4975C24.6901 25.4975 24.4277 25.2464 24.4277 24.9287C24.4277 24.6109 24.6901 24.3518 25.012 24.3518Z" fill="#FE384D"/>
<path d="M15.8966 28.2004V37.4028C15.8966 37.8593 16.4556 38.4569 16.9181 38.4569H18.3801V41.5943C18.3801 42.3932 18.9695 43.0364 19.7031 43.0364C20.4367 43.0364 21.0261 42.3932 21.0261 41.5943V38.4569H23.1525V41.5943C23.1525 42.3932 23.7418 43.0364 24.4755 43.0364C25.2091 43.0364 25.8065 42.3932 25.8065 41.5943V38.4569H27.2605C27.723 38.4569 28.2819 37.8593 28.2819 37.4028V28.2004H15.8965H15.8966Z" fill="#FE384D"/>
<path d="M15.1825 29.45C15.1825 28.6535 14.5897 28.0078 13.8584 28.0078C13.127 28.0078 12.5342 28.6535 12.5342 29.45V34.9096C12.5342 35.7061 13.127 36.3518 13.8584 36.3518C14.5897 36.3518 15.1825 35.7061 15.1825 34.9096V29.45Z" fill="#FE384D"/>
<path d="M31.6462 29.45C31.6462 28.6535 31.0533 28.0078 30.322 28.0078C29.5907 28.0078 28.9978 28.6535 28.9978 29.45V34.9096C28.9978 35.7061 29.5907 36.3518 30.322 36.3518C31.0533 36.3518 31.6462 35.7061 31.6462 34.9096V29.45Z" fill="#FE384D"/>
</g>
<path d="M15.4883 3.86426H17.6494V5.66516H15.4883V3.86426Z" fill="#150A33"/>
<path d="M16.748 60.052C18.4388 60.052 19.8096 58.6812 19.8096 56.9905C19.8096 55.2998 18.4388 53.929 16.748 53.929C15.0573 53.929 13.6865 55.2998 13.6865 56.9905C13.6865 58.6812 15.0573 60.052 16.748 60.052ZM16.748 55.97C17.3116 55.97 17.7686 56.4269 17.7686 56.9905C17.7686 57.5541 17.3116 58.011 16.748 58.011C16.1845 58.011 15.7275 57.5541 15.7275 56.9905C15.7275 56.4269 16.1845 55.97 16.748 55.97Z" fill="#150A33"/>
<path d="M6.12354 58.2512H8.28461V60.0521H6.12354V58.2512Z" fill="#150A33"/>
<path d="M3.24121 58.2512H5.40229V60.0521H3.24121V58.2512Z" fill="#150A33"/>
<path d="M3.24121 55.0095H5.40229V57.1706H3.24121V55.0095Z" fill="#150A33"/>
<path d="M58.911 11.0678H33.4247V2.7116C33.4247 1.55793 32.4893 0.622559 31.3356 0.622559H2.08904C0.935376 0.622559 0 1.55793 0 2.7116V61.2048C0 62.3584 0.935376 63.2938 2.08904 63.2938H31.3356C32.4893 63.2938 33.4247 62.3584 33.4247 61.2048V52.8486H58.911C60.0646 52.8486 61 51.9132 61 50.7595V13.1568C61 12.0031 60.0646 11.0678 58.911 11.0678ZM31.3356 2.7116V4.80064H19.8459C19.5689 4.80064 19.3032 4.91081 19.1074 5.10665L16.7123 7.50171L14.3173 5.10665C14.1214 4.91081 13.8557 4.80064 13.5788 4.80064H2.08904V2.7116H31.3356ZM31.3356 61.2048H2.08904V6.88968H13.1463L15.9738 9.71723C16.3818 10.1247 17.0428 10.1247 17.4508 9.71723L20.2784 6.88968H31.3356V11.0678H6.26712C5.11346 11.0678 4.17808 12.0031 4.17808 13.1568V50.7595C4.17808 51.9132 5.11346 52.8486 6.26712 52.8486H31.3356V61.2048ZM6.26712 50.7595V13.1568H58.911V50.7595H6.26712Z" fill="#8D98A6"/>
<path d="M52.2092 36.3803C51.9309 37.0547 51.5975 37.6773 51.2081 38.2514C50.6772 39.0342 50.2404 39.5775 49.9012 39.8814C49.3761 40.3794 48.8074 40.6411 48.1929 40.6687C47.7516 40.6785 47.2166 40.5662 46.5914 40.3285C45.9643 40.0919 45.3903 39.9806 44.868 39.9921C44.3202 40.0041 43.7354 40.141 43.1124 40.405C42.4886 40.6702 41.9844 40.8124 41.597 40.8339C41.008 40.8717 40.4147 40.6285 39.8163 40.1032C39.4348 39.7892 38.9544 39.2472 38.3762 38.477C37.756 37.6547 37.2398 36.6966 36.8278 35.6004C36.3864 34.4163 36.1529 33.2655 36.1283 32.1469C36.1001 30.8655 36.3564 29.7541 36.8981 28.8156C37.3234 28.062 37.8982 27.4623 38.6242 27.0153C39.3502 26.5684 40.1401 26.3314 40.9956 26.2985C41.4639 26.2882 42.0811 26.4176 42.8504 26.6817C43.6176 26.9468 44.1093 27.079 44.3236 27.0743C44.4837 27.0708 45.0228 26.8917 45.9357 26.5383C46.7991 26.2102 47.5307 26.0661 48.1334 26.1032C49.7666 26.1972 51.0053 26.8044 51.845 27.9289C50.4061 28.8327 49.7117 30.0695 49.7605 31.6355C49.8005 32.8552 50.2714 33.8606 51.1707 34.6473C51.5784 35.0126 52.0309 35.292 52.5318 35.4864C52.431 35.7968 52.3238 36.0944 52.2092 36.3803ZM48.1508 21.9445C48.1719 22.9008 47.8375 23.8014 47.1499 24.6433C46.3199 25.6445 45.3023 26.2348 44.1833 26.1698C44.1665 26.0554 44.1556 25.9349 44.1528 25.808C44.1326 24.89 44.516 23.8987 45.2176 23.0796C45.5677 22.665 46.0169 22.3168 46.5648 22.0348C47.1116 21.7569 47.631 21.5985 48.1221 21.5625C48.1392 21.69 48.148 21.8177 48.1508 21.9445L48.1508 21.9445Z" fill="#FE384D"/>
<defs>
<clipPath id="clip0">
<rect x="12.5342" y="20.6772" width="19.2192" height="22.5616" fill="white"/>
</clipPath>
</defs>
</svg>
