<svg preserveAspectRatio='none' width="355" height="203" viewBox="0 0 355 203" fill="none" xmlns="http://www.w3.org/2000/svg">
<path d="M89.6043 183.293L171.942 201.387C173.957 201.83 176.044 201.83 178.058 201.387L260.397 183.293L335.633 167.656C342.246 166.281 346.986 160.451 346.981 153.696L346.908 47.8013C346.903 39.9361 340.526 33.563 332.66 33.563L17.3405 33.563C9.47528 33.563 3.09777 39.9361 3.09237 47.8013L3.01957 153.696C3.01493 160.451 7.7544 166.281 14.3682 167.656L89.6043 183.293Z" fill="url(#paint000_linear)"/>
<path d="M88.1124 170.215L171.934 188.684C173.954 189.129 176.046 189.129 178.066 188.684L261.888 170.215L338.644 154.218C345.254 152.841 349.99 147.012 349.985 140.26L349.911 33.7406C349.905 25.8754 343.528 19.5023 335.663 19.5023L14.3375 19.5023C6.47232 19.5023 0.0948142 25.8754 0.0893197 33.7406L0.0151752 140.26C0.0104744 147.012 4.74607 152.841 11.3564 154.218L88.1124 170.215Z" fill="url(#paint111_linear)"/>
<path d="M85.6262 154.077L171.943 173.04C173.957 173.483 176.043 173.483 178.057 173.04L264.374 154.078L343.642 137.606C350.257 136.232 354.997 130.401 354.992 123.646L354.915 14.2381C354.91 6.37294 348.532 -9.19394e-05 340.667 -9.24097e-05L9.33298 -0.00011222C1.46783 -0.00011269 -4.90967 6.37293 -4.91517 14.2381L-4.99184 123.646C-4.99657 130.401 -0.256677 136.232 6.35758 137.606L85.6262 154.077Z" fill="url(#paint222_linear)"/>
<defs>
<linearGradient id="paint000_linear" x1="175" y1="200.058" x2="175" y2="33.563" gradientUnits="userSpaceOnUse">
<stop stop-color="#DEDEEF"/>
<stop offset="1" stop-color="white"/>
</linearGradient>
<linearGradient id="paint111_linear" x1="175" y1="189.359" x2="175" y2="19.5024" gradientUnits="userSpaceOnUse">
<stop stop-color="#EDEDF8"/>
<stop offset="1" stop-color="white"/>
</linearGradient>
<linearGradient id="paint222_linear" x1="175" y1="193.047" x2="175" y2="-6.34805e-05" gradientUnits="userSpaceOnUse">
<stop stop-color="#F5F5F8"/>
<stop offset="1" stop-color="white"/>
</linearGradient>
</defs>
</svg>
