<svg width="138" height="138" viewBox="0 0 138 138" fill="none" xmlns="http://www.w3.org/2000/svg">
<path fill-rule="evenodd" clip-rule="evenodd" d="M8.22817e-07 69C1.27694e-06 30.918 30.918 3.68693e-07 69 8.22817e-07C107.082 1.27694e-06 138 30.918 138 69C138 107.082 107.082 138 69 138C30.918 138 3.68693e-07 107.082 8.22817e-07 69Z" fill="url(#paint011_radial)"/>
<g filter="url(#filter011_dd)">
<path d="M64.1475 54.2453C61.4846 52.5507 58 54.4636 58 57.6199V80.3799C58 83.5363 61.4846 85.4491 64.1475 83.7545L82.0303 72.3746C84.5003 70.8027 84.5003 67.1971 82.0303 65.6253L64.1475 54.2453Z" fill="url(#paint111_linear)"/>
</g>
<circle opacity="0.2" cx="69" cy="69" r="55.5" stroke="#FE3F67"/>
<path d="M125 69C125 99.9279 99.9279 125 69 125C38.0721 125 13 99.9279 13 69C13 38.0721 38.0721 13 69 13" stroke="#FE3F67" stroke-width="3" stroke-linecap="round"/>
<defs>
<filter id="filter011_dd" x="4" y="23.6134" width="123.883" height="118.773" filterUnits="userSpaceOnUse" color-interpolation-filters="sRGB">
<feFlood flood-opacity="0" result="BackgroundImageFix"/>
<feColorMatrix in="SourceAlpha" type="matrix" values="0 0 0 0 0 0 0 0 0 0 0 0 0 0 0 0 0 0 127 0"/>
<feOffset dx="-10" dy="14"/>
<feGaussianBlur stdDeviation="22"/>
<feColorMatrix type="matrix" values="0 0 0 0 0.564706 0 0 0 0 0.196078 0 0 0 0 0.933333 0 0 0 0.5 0"/>
<feBlend mode="normal" in2="BackgroundImageFix" result="effect1_dropShadow"/>
<feColorMatrix in="SourceAlpha" type="matrix" values="0 0 0 0 0 0 0 0 0 0 0 0 0 0 0 0 0 0 127 0"/>
<feOffset dx="10" dy="14"/>
<feGaussianBlur stdDeviation="17"/>
<feColorMatrix type="matrix" values="0 0 0 0 1 0 0 0 0 0 0 0 0 0 0 0 0 0 0.3 0"/>
<feBlend mode="normal" in2="effect1_dropShadow" result="effect2_dropShadow"/>
<feBlend mode="normal" in="SourceGraphic" in2="effect2_dropShadow" result="shape"/>
</filter>
<radialGradient id="paint011_radial" cx="0" cy="0" r="1" gradientUnits="userSpaceOnUse" gradientTransform="translate(52.9644 43.7225) rotate(-90) scale(101.942)">
<stop stop-color="white"/>
<stop offset="1" stop-color="#FFDBEA"/>
</radialGradient>
<linearGradient id="paint111_linear" x1="88.1635" y1="32.371" x2="53.9451" y2="35.1545" gradientUnits="userSpaceOnUse">
<stop stop-color="#FC4CA0"/>
<stop offset="1" stop-color="#FF3232"/>
</linearGradient>
</defs>
</svg>
