<svg width="63" height="51" viewBox="0 0 63 51" fill="none" xmlns="http://www.w3.org/2000/svg">
<path d="M9 34.6226L11 34.6226" stroke="#150A33" stroke-width="2" stroke-linecap="round"/>
<path d="M43 31.6226L45 31.6226" stroke="#150A33" stroke-width="2" stroke-linecap="round"/>
<path d="M43 46.6226L45 46.6226" stroke="#150A33" stroke-width="2" stroke-linecap="round"/>
<path d="M9 37.6226L11 37.6226" stroke="#150A33" stroke-width="2" stroke-linecap="round"/>
<path d="M43 34.6226L45 34.6226" stroke="#150A33" stroke-width="2" stroke-linecap="round"/>
<path d="M43 43.6226L45 43.6226" stroke="#150A33" stroke-width="2" stroke-linecap="round"/>
<path d="M20 40.6226L18 40.6226" stroke="#150A33" stroke-width="2" stroke-linecap="round"/>
<path d="M54 37.6226L52 37.6226" stroke="#150A33" stroke-width="2" stroke-linecap="round"/>
<path d="M54 40.6226L52 40.6226" stroke="#150A33" stroke-width="2" stroke-linecap="round"/>
<path d="M14 34.6226L20 34.6226" stroke="#150A33" stroke-width="2" stroke-linecap="round"/>
<path d="M48 31.6226L54 31.6226" stroke="#150A33" stroke-width="2" stroke-linecap="round"/>
<path d="M48 46.6226L54 46.6226" stroke="#150A33" stroke-width="2" stroke-linecap="round"/>
<path d="M14 37.6226L20 37.6226" stroke="#150A33" stroke-width="2" stroke-linecap="round"/>
<path d="M48 34.6226L54 34.6226" stroke="#150A33" stroke-width="2" stroke-linecap="round"/>
<path d="M48 43.6226L54 43.6226" stroke="#150A33" stroke-width="2" stroke-linecap="round"/>
<path d="M15 40.6226L9 40.6226" stroke="#150A33" stroke-width="2" stroke-linecap="round"/>
<path d="M49 37.6226L43 37.6226" stroke="#150A33" stroke-width="2" stroke-linecap="round"/>
<path d="M49 40.6226L43 40.6226" stroke="#150A33" stroke-width="2" stroke-linecap="round"/>
<rect x="1" y="1.62256" width="27" height="48" rx="2" stroke="#8D98A6" stroke-width="2"/>
<rect x="5" y="12.6226" width="19" height="13" rx="1" fill="#FE384D" stroke="#150A33" stroke-width="2"/>
<rect x="39" y="8.62256" width="19" height="14" rx="1" fill="#FE384D" stroke="#150A33" stroke-width="2"/>
<rect x="5" y="30.6226" width="19" height="13" rx="1" stroke="#150A33" stroke-width="2"/>
<rect x="39" y="27.6226" width="19" height="22" rx="1" stroke="#150A33" stroke-width="2"/>
<path d="M1 43.6226H28V47.6226C28 48.7271 27.1046 49.6226 26 49.6226H3C1.89543 49.6226 1 48.7271 1 47.6226V43.6226Z" fill="#8D98A6" stroke="#8D98A6" stroke-width="2"/>
<path d="M1 7.62256H28V3.62256C28 2.51799 27.1046 1.62256 26 1.62256H3C1.89543 1.62256 1 2.51799 1 3.62256V7.62256Z" fill="#8D98A6" stroke="#8D98A6" stroke-width="2"/>
<path d="M44 1.62256H53V2.62256C53 3.72713 52.1046 4.62256 51 4.62256H46C44.8954 4.62256 44 3.72713 44 2.62256V1.62256Z" fill="#8D98A6" stroke="#8D98A6" stroke-width="2"/>
<path d="M5 46.6226L9 46.6226" stroke="white" stroke-width="2" stroke-linecap="round"/>
<path d="M13 46.6226L17 46.6226" stroke="white" stroke-width="2" stroke-linecap="round"/>
<path d="M13 4.62256L17 4.62256" stroke="white" stroke-width="2" stroke-linecap="round"/>
<path d="M47 3.62256L50 3.62256" stroke="white" stroke-width="2" stroke-linecap="round"/>
<path d="M21 46.6226L25 46.6226" stroke="white" stroke-width="2" stroke-linecap="round"/>
<rect x="35" y="1.62256" width="27" height="48" rx="2" stroke="#8D98A6" stroke-width="2"/>
</svg>
