<svg width="60" height="60" viewBox="0 0 60 60" fill="none" xmlns="http://www.w3.org/2000/svg">
<path d="M56 58H54V49H57V47H54V45H59C59.1978 45 59.391 44.9413 59.5555 44.8314C59.7199 44.7215 59.848 44.5654 59.9237 44.3827C59.9993 44.2 60.0191 43.9989 59.9806 43.805C59.942 43.611 59.8468 43.4329 59.707 43.293L53.707 37.293C53.5195 37.1054 53.2652 37.0001 53 37H7C6.73481 37.0001 6.48049 37.1054 6.293 37.293L0.293 43.293C0.153191 43.4329 0.0579841 43.611 0.0194166 43.805C-0.019151 43.9989 0.000652038 44.2 0.0763221 44.3827C0.151992 44.5654 0.280132 44.7215 0.444541 44.8314C0.608951 44.9413 0.80225 45 1 45H5V58H0V60H56V58ZM52 58H40V49H52V58ZM18 42V58H16V42.414L19 39.414L24.293 44.707C24.4805 44.8946 24.7348 44.9999 25 45H33V47H29V49H33V58H20V42H18ZM13 45C13.2652 44.9999 13.5195 44.8946 13.707 44.707L14 44.414V58H11V45H13ZM38 45V47H35V45H38ZM35 49H38V58H35V49ZM52 47H40V45H52V47ZM52.586 39L56.586 43H25.414L21.414 39H52.586ZM7.414 39H16.586L12.586 43H3.414L7.414 39ZM7 45H9V58H7V45Z" fill="#AEB8C4"/>
<path d="M27 47H25V49H27V47Z" fill="#AEB8C4"/>
<path d="M60 58H58V60H60V58Z" fill="#AEB8C4"/>
<path d="M0.999976 23.9997C1 25.9775 1.58651 27.9109 2.68532 29.5553C3.78414 31.1998 5.34591 32.4815 7.17316 33.2384C9.0004 33.9952 11.011 34.1933 12.9508 33.8074C14.8906 33.4216 16.6724 32.4692 18.071 31.0707C19.0062 30.1436 19.7492 29.0409 20.2571 27.8259C20.7651 26.6109 21.028 25.3075 21.0309 23.9906C21.0338 22.6737 20.7765 21.3692 20.2739 20.152C19.7713 18.9348 19.0332 17.8289 18.102 16.8977C17.1708 15.9665 16.0649 15.2284 14.8477 14.7258C13.6304 14.2231 12.3259 13.9659 11.009 13.9688C9.69214 13.9717 8.38878 14.2346 7.17378 14.7426C5.95878 15.2505 4.85608 15.9935 3.92898 16.9287C2.99745 17.8551 2.25893 18.9571 1.75616 20.1708C1.2534 21.3846 0.996377 22.686 0.999976 23.9997ZM11 15.9997C12.8508 15.9998 14.6444 16.6416 16.075 17.8158C17.5057 18.99 18.485 20.624 18.846 22.4393C19.207 24.2545 18.9275 26.1388 18.0549 27.7711C17.1824 29.4034 15.7709 30.6826 14.0609 31.3908C12.3509 32.0991 10.4483 32.1925 8.67718 31.6552C6.90605 31.1178 5.37603 29.983 4.3478 28.4441C3.31957 26.9051 2.85676 25.0573 3.03823 23.2154C3.21969 21.3734 4.0342 19.6514 5.34297 18.3427C6.08416 17.5975 6.96577 17.0068 7.93679 16.6046C8.90782 16.2024 9.94896 15.9968 11 15.9997Z" fill="white"/>
<path d="M50 14C47.6865 14 45.4445 14.8022 43.6561 16.2699C41.8676 17.7375 40.6434 19.7799 40.1921 22.049C39.7407 24.3181 40.09 26.6735 41.1806 28.7139C42.2712 30.7543 44.0355 32.3534 46.173 33.2388C48.3104 34.1242 50.6887 34.2411 52.9026 33.5695C55.1166 32.8979 57.0292 31.4795 58.3145 29.5558C59.5999 27.6322 60.1785 25.3224 59.9518 23.02C59.725 20.7176 58.7069 18.565 57.071 16.929C56.1446 15.9975 55.0427 15.259 53.8289 14.7562C52.6152 14.2535 51.3138 13.9964 50 14ZM55.657 29.657C54.3483 30.9658 52.6263 31.7803 50.7844 31.9618C48.9425 32.1433 47.0946 31.6805 45.5557 30.6522C44.0167 29.624 42.8819 28.094 42.3446 26.3228C41.8073 24.5517 41.9007 22.6491 42.6089 20.9391C43.3171 19.2291 44.5964 17.8176 46.2286 16.9451C47.8609 16.0726 49.7452 15.793 51.5605 16.154C53.3758 16.515 55.0097 17.4943 56.1839 18.925C57.3581 20.3556 58 22.1492 58 24C58.0029 25.0511 57.7973 26.0922 57.3951 27.0632C56.993 28.0343 56.4022 28.9159 55.657 29.657Z" fill="white"/>
<path d="M41 11C41 9.02219 40.4135 7.08879 39.3147 5.4443C38.2159 3.79981 36.6541 2.51809 34.8268 1.76121C32.9996 1.00433 30.9889 0.806299 29.0491 1.19215C27.1093 1.578 25.3275 2.53041 23.9289 3.92894C22.5304 5.32746 21.578 7.10929 21.1922 9.0491C20.8063 10.9889 21.0043 12.9996 21.7612 14.8268C22.5181 16.6541 23.7998 18.2159 25.4443 19.3147C27.0888 20.4135 29.0222 21 31 21C33.6513 20.9971 36.1931 19.9426 38.0679 18.0679C39.9426 16.1931 40.9971 13.6513 41 11ZM31 19C29.4178 19 27.871 18.5308 26.5554 17.6518C25.2399 16.7727 24.2145 15.5233 23.609 14.0615C23.0035 12.5997 22.845 10.9911 23.1537 9.43928C23.4624 7.88743 24.2243 6.46197 25.3432 5.34315C26.462 4.22433 27.8874 3.4624 29.4393 3.15372C30.9911 2.84504 32.5997 3.00347 34.0615 3.60897C35.5233 4.21447 36.7727 5.23985 37.6518 6.55544C38.5308 7.87104 39 9.41775 39 11C38.9976 13.121 38.154 15.1545 36.6542 16.6542C35.1545 18.154 33.121 18.9976 31 19Z" fill="white"/>
<path d="M31 23H29V35H31V23Z" fill="#FE384D"/>
<path d="M33 35H35V31C35 30.4696 35.2107 29.9609 35.5858 29.5858C35.9609 29.2107 36.4696 29 37 29V27C35.9391 27 34.9217 27.4214 34.1716 28.1716C33.4214 28.9217 33 29.9391 33 31V35Z" fill="#FE384D"/>
<path d="M27 35V29C27 27.9391 26.5786 26.9217 25.8284 26.1716C25.0783 25.4214 24.0609 25 23 25V27C23.5304 27 24.0391 27.2107 24.4142 27.5858C24.7893 27.9609 25 28.4696 25 29V35H27Z" fill="#FE384D"/>
<path d="M21.308 0.899414C19.941 2.2016 18.8539 3.76889 18.1132 5.50547C17.3725 7.24206 16.9937 9.11147 17 10.9994C17 11.3614 17.0137 11.7204 17.041 12.0764L19.035 11.9224C19.0117 11.6184 19 11.3107 19 10.9994C18.9942 9.38089 19.3186 7.77819 19.9534 6.28934C20.5883 4.80049 21.5201 3.45679 22.692 2.34041L21.308 0.899414Z" fill="white"/>
<path d="M4 3H2V5H4V3Z" fill="#AEB8C4"/>
<path d="M11 8H9V10H11V8Z" fill="#AEB8C4"/>
<path d="M3 35H1V37H3V35Z" fill="#AEB8C4"/>
<path d="M60 35H58V37H60V35Z" fill="#AEB8C4"/>
<path d="M46 2H44V4H46V2Z" fill="#AEB8C4"/>
<path d="M56 9H54V11H56V9Z" fill="#AEB8C4"/>
<path d="M13.9597 25.5337L14.0304 25.463L13.9597 25.3923L13.2764 24.7089L13.2057 24.6382L13.135 24.7089L11.7568 26.0871L11.3057 25.636L12.7444 24.1973L12.7447 24.197C13.45 23.4858 13.8368 22.7594 13.885 22.0181L13.885 22.0181C13.9334 21.2682 13.6337 20.5768 13.0039 19.947C12.4008 19.344 11.7116 19.0637 10.941 19.1179C10.1725 19.1719 9.44468 19.5501 8.75798 20.2368L6.43542 22.5594L6.36471 22.6301L6.43542 22.7008L9.51768 25.7831L8.6931 26.6077L8.62239 26.6784L8.6931 26.7491L9.37214 27.4281L9.44285 27.4988L9.51356 27.4281L10.3381 26.6035L10.7893 27.0546L9.96468 27.8792L9.89396 27.9499L9.96468 28.0206L10.648 28.704L10.7187 28.7747L10.7895 28.704L11.614 27.8794L12.7327 28.9981L12.8034 29.0688L12.8741 28.9981L13.7002 28.172L13.7709 28.1013L13.7002 28.0306L12.5815 26.9119L13.9597 25.5337ZM10.8689 20.4291L10.8695 20.4291C11.3057 20.4129 11.6962 20.5743 12.045 20.9232C12.4347 21.3129 12.608 21.7107 12.5868 22.1189C12.5655 22.5295 12.3477 22.953 11.911 23.3898L10.4852 24.8156L8.157 22.4874L9.60846 21.0359C10.0101 20.6399 10.4299 20.4426 10.8689 20.4291Z" fill="#FE384D" stroke="#FE384D" stroke-width="0.2"/>
<path d="M31.4834 14.3237H31.5834V14.2237V13.2573V13.1573H31.4834H29.5344V12.5193L31.5691 12.5193L31.5695 12.5193C32.5711 12.5151 33.3582 12.275 33.9165 11.7849L33.9166 11.7849C34.481 11.2889 34.7579 10.5881 34.7579 9.69741C34.7579 8.84452 34.4688 8.159 33.8856 7.65238C33.304 7.1472 32.5219 6.9 31.5507 6.9H28.2661H28.1661V7V11.359H27H26.9V11.459V12.4193V12.5193H27H28.1661V13.1573H27H26.9V13.2573V14.2237V14.3237H27H28.1661V15.9057V16.0057H28.2661H29.4344H29.5344V15.9057V14.3237H31.4834ZM32.9074 8.52859L32.9078 8.52902C33.2277 8.82601 33.3897 9.21625 33.3897 9.70964C33.3897 10.2608 33.2309 10.6645 32.9273 10.9382C32.6218 11.2135 32.1684 11.359 31.5507 11.359H29.5344V8.06642H31.5871C32.1511 8.07042 32.5874 8.22769 32.9074 8.52859Z" fill="#FE384D" stroke="#FE384D" stroke-width="0.2"/>
<path d="M49.6738 27.5842L49.7604 27.6342L49.8104 27.5476L50.2936 26.7107L50.3436 26.6241L50.257 26.5741L48.5691 25.5995L48.8881 25.047L50.6502 26.0644L50.6505 26.0646C51.52 26.5618 52.3218 26.7474 53.0503 26.6021L53.0504 26.6021C53.7871 26.4548 54.3774 25.9863 54.8228 25.215C55.2492 24.4764 55.3416 23.7381 55.0898 23.0078C54.8387 22.2795 54.285 21.6743 53.4439 21.1888L50.5994 19.5465L50.5128 19.4965L50.4628 19.5831L48.2833 23.3581L47.2734 22.775L47.1868 22.725L47.1368 22.8116L46.6566 23.6432L46.6066 23.7298L46.6932 23.7798L47.7031 24.3629L47.3842 24.9154L46.3743 24.3323L46.2877 24.2823L46.2377 24.3689L45.7544 25.2059L45.7044 25.2925L45.791 25.3425L46.8009 25.9256L46.0099 27.2957L45.9599 27.3823L46.0465 27.4323L47.0583 28.0164L47.1449 28.0664L47.1949 27.9798L47.9859 26.6097L49.6738 27.5842ZM53.8045 23.2775L53.8047 23.2781C53.9332 23.6952 53.8784 24.1142 53.6317 24.5415C53.3561 25.0187 53.0168 25.289 52.617 25.3742C52.2148 25.4599 51.7494 25.3592 51.2144 25.0504L49.4682 24.0422L51.1145 21.1907L52.8922 22.2171C53.3787 22.5026 53.6779 22.8569 53.8045 23.2775Z" fill="#FE384D" stroke="#FE384D" stroke-width="0.2"/>
</svg>
