<svg width="61" height="47" viewBox="0 0 61 47" fill="none" xmlns="http://www.w3.org/2000/svg">
<path d="M58.2026 14.8793H52.2018L49.1684 2.98337C48.7873 1.48864 47.261 0.583051 45.7666 0.963943L38.8506 2.72746C38.3842 2.84636 38.1024 3.32102 38.2213 3.78745C38.3403 4.25389 38.8149 4.53542 39.2813 4.41675L46.1973 2.65324C46.7609 2.50991 47.3355 2.85101 47.4792 3.41418L47.8152 4.732L2.11233 16.3858L1.77635 15.0681C1.70678 14.7953 1.74764 14.5116 1.89132 14.2695C2.03513 14.0275 2.26459 13.8558 2.53742 13.7862L33.9737 5.77007C34.4401 5.65117 34.7219 5.17651 34.603 4.71008C34.484 4.24364 34.0097 3.96211 33.543 4.08078L2.10661 12.0969C0.611874 12.478 -0.29407 14.0041 0.0870608 15.4987L6.53351 40.7794C6.85579 42.0431 7.99632 42.886 9.24455 42.8859C9.47259 42.8859 9.70444 42.8577 9.93533 42.7988L10.348 42.6936V43.7662C10.348 45.3087 11.6029 46.5636 13.1454 46.5636H58.2026C59.7451 46.5636 61 45.3087 61 43.7662V17.6767C61 16.1342 59.7451 14.8793 58.2026 14.8793ZM10.3482 40.8946L9.50476 41.1096C8.94158 41.2533 8.36649 40.9119 8.22281 40.3487L4.27687 24.8742L10.3482 23.3261V40.8946ZM10.3482 17.6766V21.5271L3.84618 23.1851L2.54314 18.0749L10.9648 15.9274C10.5795 16.4069 10.3482 17.0151 10.3482 17.6766ZM50.4028 14.8792H43.474L49.9797 13.2203L50.4028 14.8792ZM48.246 6.42093L49.5491 11.5311L36.4189 14.8793H15.0755L48.246 6.42093ZM58.2026 44.8204H13.1456C12.5643 44.8204 12.0913 44.3475 12.0913 43.7662V41.5719V17.6767C12.0913 17.0954 12.5642 16.6226 13.1456 16.6226H58.2026C58.7839 16.6226 59.2567 17.0954 59.2567 17.6767V43.7662C59.2567 44.3475 58.7839 44.8204 58.2026 44.8204Z" fill="#AEB8C4"/>
<path d="M34.7107 37.3359H15.7188C15.2375 37.3359 14.8472 37.7261 14.8472 38.2076C14.8472 38.689 15.2375 39.0792 15.7188 39.0792H34.7107C35.1921 39.0792 35.5824 38.689 35.5824 38.2076C35.5824 37.7262 35.1922 37.3359 34.7107 37.3359Z" fill="white"/>
<path d="M49.2357 22.0088C47.9837 22.0088 46.8252 22.4129 45.8809 23.0959C44.9079 22.391 43.7407 22.0088 42.5226 22.0088C39.3585 22.0088 36.7843 24.5829 36.7843 27.7471C36.7845 30.9111 39.3587 33.4852 42.5227 33.4852C43.7408 33.4852 44.9079 33.103 45.8809 32.3981C46.8252 33.0811 47.9839 33.4852 49.2357 33.4852C52.3997 33.4852 54.9738 30.9111 54.9738 27.7471C54.9738 24.5829 52.3997 22.0088 49.2357 22.0088ZM43.5044 28.0191C43.5055 28.0415 43.507 28.0637 43.5083 28.0861C43.5125 28.1592 43.5181 28.232 43.525 28.3045C43.5267 28.3214 43.5282 28.3384 43.53 28.3553C43.6363 29.3746 44.0081 30.3322 44.6147 31.1501C43.9904 31.5354 43.2702 31.7418 42.5227 31.7418C40.3198 31.7418 38.5277 29.9497 38.5277 27.7469C38.5278 25.5443 40.3199 23.7521 42.5227 23.7521C43.2702 23.7521 43.9904 23.9585 44.6147 24.3438C44.0083 25.1617 43.6363 26.1193 43.53 27.1386C43.5282 27.1555 43.5267 27.1723 43.525 27.1893C43.5181 27.2618 43.5126 27.3346 43.5083 27.4076C43.507 27.43 43.5055 27.4522 43.5044 27.4746C43.5002 27.565 43.4975 27.6557 43.4975 27.7468C43.4975 27.838 43.5002 27.9286 43.5044 28.0191ZM49.2359 31.742C48.1452 31.742 47.1556 31.3022 46.434 30.5912C46.4191 30.5765 46.4044 30.5618 46.3898 30.5469C46.3565 30.513 46.3235 30.4788 46.2915 30.4438C46.2827 30.4342 46.274 30.4244 46.2651 30.4146C46.2275 30.3727 46.1903 30.3303 46.1545 30.2868C46.1542 30.2866 46.1541 30.2863 46.1539 30.2861C45.5838 29.5953 45.2409 28.7103 45.2409 27.7468C45.2408 26.7835 45.5838 25.8985 46.154 25.2076C46.1541 25.2075 46.1542 25.2074 46.1543 25.2071C46.1903 25.1635 46.2276 25.1211 46.2654 25.079C46.2741 25.0694 46.2827 25.0597 46.2915 25.0502C46.3236 25.0151 46.3566 24.9807 46.39 24.9469C46.4045 24.9321 46.4191 24.9175 46.4338 24.9029C47.1555 24.1919 48.1452 23.7521 49.2359 23.7521C51.4387 23.7521 53.2308 25.5442 53.2308 27.7471C53.2308 29.9499 51.4387 31.742 49.2359 31.742Z" fill="#FE384D"/>
<path d="M21.9302 22.5762H18.1074C16.3097 22.5762 14.8473 24.0386 14.8473 25.8363V29.6591C14.8472 31.4568 16.3097 32.9192 18.1074 32.9192H21.9302C23.7278 32.9192 25.1903 31.4568 25.1903 29.6591V25.8363C25.1903 24.0387 23.7279 22.5762 21.9302 22.5762ZM23.447 28.2159H21.5875C21.1062 28.2159 20.7159 28.6061 20.7159 29.0876C20.7159 29.569 21.1061 29.9592 21.5875 29.9592H23.4169C23.2772 30.6523 22.6637 31.1761 21.9301 31.1761H18.1073C17.3735 31.1761 16.7601 30.6525 16.6205 29.9592H18.4499C18.9312 29.9592 19.3215 29.569 19.3215 29.0876C19.3215 28.6061 18.9313 28.2159 18.4499 28.2159H16.5904V27.4606H18.4499C18.9312 27.4606 19.3215 27.0704 19.3215 26.5889C19.3215 26.1076 18.9313 25.7173 18.4499 25.7173H16.5964C16.6574 24.9365 17.311 24.3193 18.1073 24.3193H21.9301C22.7264 24.3193 23.3799 24.9365 23.441 25.7173H21.5875C21.1062 25.7173 20.7159 26.1075 20.7159 26.5889C20.7159 27.0703 21.1061 27.4606 21.5875 27.4606H23.447V28.2159Z" fill="white"/>
<path d="M55.1763 41.1719H24.8273C24.346 41.1719 23.9557 41.5621 23.9557 42.0435C23.9557 42.525 24.3459 42.9151 24.8273 42.9151H55.1763C55.6577 42.9151 56.048 42.525 56.048 42.0435C56.048 41.5621 55.6578 41.1719 55.1763 41.1719Z" fill="white"/>
<path d="M19.2709 41.1719H15.7189C15.2376 41.1719 14.8473 41.5621 14.8473 42.0435C14.8473 42.525 15.2375 42.9151 15.7189 42.9151H19.2709C19.7522 42.9151 20.1425 42.525 20.1425 42.0435C20.1425 41.5621 19.7522 41.1719 19.2709 41.1719Z" fill="white"/>
</svg>
