<svg width="60" height="52" viewBox="0 0 60 52" fill="none" xmlns="http://www.w3.org/2000/svg">
<path d="M15 16H13V18H15V16Z" fill="#FE384D"/>
<path d="M25 13H23V15H25V13Z" fill="white"/>
<path d="M36 13H27V15H36V13Z" fill="white"/>
<path d="M10 33H8.00003V35H10V33Z" fill="white"/>
<path d="M10 37H8.00003V39H10V37Z" fill="white"/>
<path d="M16 43H8.00003V45H16V43Z" fill="#FE384D"/>
<path d="M9.00003 27.9998C9.00003 28.1855 9.05175 28.3675 9.14938 28.5255C9.24702 28.6835 9.38671 28.8112 9.55282 28.8942C9.71892 28.9773 9.90488 29.0124 10.0898 28.9958C10.2748 28.9791 10.4515 28.9112 10.6 28.7998L14 26.2498L17.4 28.7998C17.5731 28.9296 17.7837 28.9998 18 28.9998C18.2652 28.9998 18.5196 28.8944 18.7071 28.7069C18.8947 28.5194 19 28.265 19 27.9998V20.3098C19.5997 19.4058 19.943 18.3561 19.9935 17.2725C20.044 16.1888 19.7998 15.1118 19.2868 14.1559C18.7738 13.2 18.0113 12.4011 17.0803 11.8442C16.1494 11.2873 15.0848 10.9932 14 10.9932C12.9152 10.9932 11.8507 11.2873 10.9197 11.8442C9.98879 12.4011 9.22625 13.2 8.71327 14.1559C8.20028 15.1118 7.95604 16.1888 8.00654 17.2725C8.05703 18.3561 8.40038 19.4058 9.00003 20.3098V27.9998ZM14.6 24.1998C14.4269 24.07 14.2164 23.9998 14 23.9998C13.7837 23.9998 13.5731 24.07 13.4 24.1998L11 25.9998V22.1878C11.9104 22.7195 12.9457 22.9998 14 22.9998C15.0543 22.9998 16.0897 22.7195 17 22.1878V25.9998L14.6 24.1998ZM14 12.9998C14.7912 12.9998 15.5645 13.2344 16.2223 13.6739C16.8801 14.1134 17.3928 14.7382 17.6955 15.4691C17.9983 16.2 18.0775 17.0042 17.9232 17.7802C17.7688 18.5561 17.3879 19.2688 16.8285 19.8282C16.269 20.3876 15.5563 20.7686 14.7804 20.9229C14.0045 21.0773 13.2002 20.9981 12.4693 20.6953C11.7384 20.3926 11.1137 19.8799 10.6742 19.2221C10.2346 18.5643 10 17.7909 10 16.9998C10 15.9389 10.4215 14.9215 11.1716 14.1714C11.9217 13.4212 12.9392 12.9998 14 12.9998Z" fill="#FE384D"/>
<path d="M46 42H41V4C41 2.93913 40.5786 1.92172 39.8285 1.17157C39.0783 0.421427 38.0609 0 37 0H4.00003C2.93916 0 1.92175 0.421427 1.1716 1.17157C0.421458 1.92172 3.05176e-05 2.93913 3.05176e-05 4V7C3.05176e-05 7.26522 0.105387 7.51957 0.292924 7.70711C0.48046 7.89464 0.734814 8 1.00003 8H3.00003V48C3.00003 49.0609 3.42146 50.0783 4.1716 50.8284C4.92175 51.5786 5.93916 52 7.00003 52H43C44.0609 52 45.0783 51.5786 45.8285 50.8284C46.5786 50.0783 47 49.0609 47 48V43C47 42.7348 46.8947 42.4804 46.7071 42.2929C46.5196 42.1054 46.2652 42 46 42ZM2.00003 4C2.00003 3.46957 2.21074 2.96086 2.58582 2.58579C2.96089 2.21071 3.4696 2 4.00003 2H33.537C33.1842 2.60742 32.9989 3.29757 33 4V6H2.00003V4ZM5.00003 48V8H34C34.2652 8 34.5196 7.89464 34.7071 7.70711C34.8947 7.51957 35 7.26522 35 7V4C35 3.46957 35.2107 2.96086 35.5858 2.58579C35.9609 2.21071 36.4696 2 37 2C37.5305 2 38.0392 2.21071 38.4142 2.58579C38.7893 2.96086 39 3.46957 39 4V48C39.0042 48.7043 39.1961 49.3947 39.556 50H7.00003C6.4696 50 5.96089 49.7893 5.58582 49.4142C5.21074 49.0391 5.00003 48.5304 5.00003 48ZM45 48C45 48.5304 44.7893 49.0391 44.4142 49.4142C44.0392 49.7893 43.5305 50 43 50C42.4696 50 41.9609 49.7893 41.5858 49.4142C41.2107 49.0391 41 48.5304 41 48V44H45V48Z" fill="#AEB8C4"/>
<path d="M36 33H12V35H36V33Z" fill="white"/>
<path d="M36 37H12V39H36V37Z" fill="white"/>
<path d="M36 17H23V19H36V17Z" fill="white"/>
<path d="M36 21H23V23H36V21Z" fill="white"/>
<path d="M32 25H23V27H32V25Z" fill="white"/>
<path d="M36 43H28V45H36V43Z" fill="#FE384D"/>
<path d="M56.0002 4V1C56.0002 0.734784 55.8948 0.48043 55.7073 0.292893C55.5198 0.105357 55.2654 0 55.0002 0H49.0002C48.735 0 48.4806 0.105357 48.2931 0.292893C48.1055 0.48043 48.0002 0.734784 48.0002 1V33C48.0002 33.2652 48.1055 33.5196 48.2931 33.7071C48.4806 33.8946 48.735 34 49.0002 34V34.7L47.1682 37.448C47.0585 37.6123 47 37.8055 47 38.003C47 38.2005 47.0585 38.3937 47.1682 38.558L51.1682 44.558C51.2595 44.695 51.3832 44.8073 51.5284 44.8849C51.6735 44.9626 51.8356 45.0032 52.0002 45.0032C52.1648 45.0032 52.3269 44.9626 52.472 44.8849C52.6171 44.8073 52.7409 44.695 52.8322 44.558L56.8322 38.558C56.9418 38.3937 57.0003 38.2005 57.0003 38.003C57.0003 37.8055 56.9418 37.6123 56.8322 37.448L55.0002 34.7V34C55.2654 34 55.5198 33.8946 55.7073 33.7071C55.8948 33.5196 56.0002 33.2652 56.0002 33V6C56.5306 6 57.0393 6.21071 57.4144 6.58579C57.7895 6.96086 58.0002 7.46957 58.0002 8V21H60.0002V8C60.0002 6.93913 59.5788 5.92172 58.8286 5.17157C58.0785 4.42143 57.061 4 56.0002 4ZM54.0002 2V4H50.0002V2H54.0002ZM50.0002 32V10H54.0002V32H50.0002ZM53.1682 35.555L54.8002 38L52.0002 42.2L49.2002 38L50.8302 35.555C50.9401 35.3907 50.9993 35.1977 51.0002 35V34H53.0002V35C53.0005 35.1975 53.0589 35.3905 53.1682 35.555ZM54.0002 8H50.0002V6H54.0002V8Z" fill="#AEB8C4"/>
<path d="M53 37H51V39H53V37Z" fill="white"/>
</svg>
